<svg width="139" height="26" viewBox="0 0 139 26" fill="none" xmlns="http://www.w3.org/2000/svg">
<path d="M16.2725 16.2238L9.72818 16.2319L9.71206 9.70366L16.2322 9.67948L16.2725 16.2238Z" fill="#B7F37B"/>
<path d="M118.215 7.57222L120.792 7.57532L120.799 5.06601L118.231 5.05672L118.215 7.57222Z" fill="#B7F37B"/>
<path d="M6.64913 6.6491L6.64107 19.3267L14.9505 19.3187L21.5351 25.9758L6.62495 26L0 19.3831V6.62492L6.60883 0H19.3752L25.9759 6.59269V8.59951H19.3752L19.3026 6.65716L6.64913 6.6491Z" fill="white"/>
<path d="M39.5072 17.0378C38.8463 17.4489 38.1371 17.7874 37.3795 18.0291C36.6219 18.279 35.9771 18.3999 35.4371 18.3999H31.9231V24.646H28.9411V2.93366H35.4371C36.5171 2.93366 37.5165 3.14321 38.4514 3.55425C39.3863 3.96528 40.1922 4.52139 40.8773 5.21451C41.5624 5.90763 42.0943 6.71358 42.4731 7.64042C42.86 8.55921 43.0453 9.53441 43.0453 10.5418C43.0453 11.912 42.7229 13.1693 42.0862 14.3137C41.4415 15.4662 40.5872 16.3689 39.5072 17.0298V17.0378ZM31.9231 15.3937H35.4371C36.0577 15.3937 36.646 15.2728 37.1941 15.0229C37.7421 14.7731 38.2257 14.4346 38.6529 13.9994C39.08 13.5642 39.4105 13.0484 39.6603 12.46C39.9102 11.8717 40.0311 11.235 40.0311 10.5499C40.0311 9.92932 39.9102 9.34098 39.6603 8.77681C39.4105 8.22071 39.072 7.72908 38.6529 7.30192C38.2257 6.87477 37.7421 6.54433 37.1941 6.29448C36.646 6.04464 36.0577 5.92375 35.4371 5.92375H31.9231V15.4017V15.3937Z" fill="white"/>
<path d="M60.3828 9.11531V24.5896H57.6184V22.9454C56.9736 23.4613 56.2805 23.8642 55.539 24.1544C54.7895 24.4445 53.9996 24.5896 53.1453 24.5896C51.8397 24.5896 50.6388 24.2511 49.5427 23.566C48.4466 22.881 47.5681 21.9783 46.8992 20.8661C46.609 20.3503 46.3672 19.7942 46.1819 19.2058C45.9965 18.6175 45.8837 17.9969 45.8434 17.3602C45.8192 17.2393 45.8111 17.1104 45.8111 16.9895V16.2722C45.8111 16.1513 45.8192 16.0223 45.8434 15.9014V9.13143H48.6723V18.142C48.9624 19.1817 49.5185 20.0279 50.3325 20.6888C51.1466 21.3497 52.0895 21.6801 53.1453 21.6801C54.2011 21.6801 55.136 21.3497 55.942 20.6888C56.7479 20.0279 57.3121 19.1736 57.6184 18.142V9.13143H60.3828V9.11531Z" fill="white"/>
<path d="M67.7725 9.68753C68.5785 9.36515 69.4489 9.20397 70.3838 9.20397V11.9361C69.7229 11.9361 69.1024 12.0651 68.5382 12.323C67.966 12.5809 67.4743 12.9355 67.0472 13.3788C66.62 13.8221 66.2896 14.3379 66.0397 14.9343C65.7899 15.5307 65.669 16.1513 65.669 16.8121H65.5723V24.6057H62.9287V9.04277H65.5723V10.969C66.2332 10.429 66.9666 10.0019 67.7806 9.67948L67.7725 9.68753Z" fill="white"/>
<path d="M78.5565 9.05083C79.6123 9.05083 80.6036 9.25232 81.5385 9.65529C82.4734 10.0583 83.2794 10.6144 83.9645 11.3317C84.6495 12.049 85.1895 12.8791 85.5925 13.8301C85.9955 14.7811 86.197 15.7966 86.197 16.8766C86.197 17.3924 86.1567 17.8518 86.0761 18.2467H73.9626C74.1076 18.7867 74.3252 19.2703 74.6154 19.7055C74.9055 20.1407 75.2521 20.5195 75.6551 20.8419C76.058 21.1643 76.5094 21.4141 77.0091 21.5914C77.5088 21.7688 78.0246 21.8574 78.5646 21.8574C79.5801 21.8574 80.4505 21.5914 81.1758 21.0515H85.0283C84.3674 22.1717 83.4648 23.0583 82.3284 23.7111C81.192 24.3639 79.9347 24.6863 78.5726 24.6863C77.5329 24.6863 76.5577 24.4848 75.6389 24.0818C74.7202 23.6789 73.9142 23.1227 73.2291 22.4216C72.5441 21.7204 72.0041 20.8903 71.6011 19.9392C71.1981 18.9882 70.9966 17.9727 70.9966 16.8927C70.9966 15.8128 71.1981 14.7973 71.6011 13.8462C72.0041 12.8952 72.5521 12.057 73.2291 11.3478C73.9142 10.6305 74.7121 10.0744 75.6389 9.67141C76.5577 9.26844 77.541 9.06695 78.5726 9.06695L78.5565 9.05083ZM78.5565 11.8797C77.4604 11.8797 76.4932 12.2182 75.6551 12.9033C74.8169 13.5883 74.2527 14.4427 73.9626 15.4823H83.223C83.0779 14.9665 82.8522 14.491 82.554 14.0558C82.2558 13.6206 81.9012 13.2418 81.4982 12.9194C81.0953 12.597 80.6439 12.3472 80.1442 12.1618C79.6445 11.9764 79.1207 11.8797 78.5565 11.8797Z" fill="white"/>
<path d="M106.7 12.4681V24.5815H103.653V23.4935C102.968 23.7836 102.227 24.0335 101.413 24.2511C100.607 24.4687 99.801 24.5735 98.9869 24.5735C97.4556 24.5735 96.021 24.2833 94.6831 23.703C93.3453 23.1228 92.1847 22.3329 91.1853 21.3416C90.1859 20.3503 89.4041 19.1817 88.8239 17.8438C88.2436 16.5059 87.9534 15.0713 87.9534 13.54C87.9534 12.0087 88.2436 10.6224 88.8239 9.31681C89.4041 8.01116 90.194 6.87477 91.1853 5.91569C92.1766 4.95661 93.3453 4.19901 94.6831 3.65097C96.021 3.10292 97.4556 2.8289 98.9869 2.8289C100.107 2.8289 101.179 2.97396 102.219 3.26411C103.25 3.55425 104.185 4.062 105.016 4.78736L103.927 7.51953C102.557 6.39926 100.913 5.84315 98.9869 5.84315C97.8908 5.84315 96.8673 6.0527 95.9243 6.46374C94.9814 6.87477 94.1673 7.43894 93.4662 8.15624C92.773 8.87353 92.225 9.6956 91.8381 10.6224C91.4432 11.5574 91.2498 12.5245 91.2498 13.54C91.2498 14.6361 91.4432 15.6758 91.8381 16.6429C92.233 17.6181 92.773 18.4644 93.4662 19.1897C94.1593 19.9151 94.9814 20.4873 95.9243 20.9145C96.8673 21.3416 97.8828 21.5512 98.9869 21.5512C99.3819 21.5512 99.7929 21.5028 100.228 21.398C100.663 21.2932 101.09 21.1562 101.502 20.9789C101.913 20.8016 102.307 20.6001 102.678 20.3745C103.049 20.1488 103.371 19.899 103.637 19.6249V15.2164H100.067V12.452H106.684L106.7 12.4681Z" fill="white"/>
<path d="M113.567 9.68753C114.373 9.36515 115.243 9.20397 116.178 9.20397V11.9361C115.517 11.9361 114.897 12.0651 114.332 12.323C113.76 12.5809 113.269 12.9355 112.841 13.3788C112.414 13.8221 112.084 14.3379 111.834 14.9343C111.584 15.5307 111.463 16.1513 111.463 16.8121H111.367V24.6057H108.723V9.04277H111.367V10.969C112.027 10.429 112.761 10.0019 113.575 9.67948L113.567 9.68753Z" fill="white"/>
<path d="M120.925 24.5896H118.128V9.09113H120.925V24.5896Z" fill="white"/>
<path d="M138.14 1.32176V24.5896H135.19V22.7843C134.545 23.3242 133.82 23.7595 133.014 24.0899C132.208 24.4203 131.346 24.5896 130.435 24.5896C129.395 24.5896 128.42 24.38 127.501 23.969C126.582 23.558 125.776 22.9938 125.091 22.2765C124.406 21.5592 123.866 20.7371 123.479 19.7942C123.085 18.8512 122.891 17.8438 122.891 16.7638C122.891 15.6838 123.085 14.6844 123.479 13.7495C123.874 12.8146 124.414 12.0006 125.091 11.2994C125.776 10.5983 126.574 10.0422 127.501 9.63919C128.42 9.23621 129.403 9.03472 130.435 9.03472C131.346 9.03472 132.208 9.18785 133.014 9.48605C133.82 9.78426 134.545 10.2034 135.19 10.7433V1.32982H138.14V1.32176ZM130.435 21.6962C131.055 21.6962 131.644 21.5914 132.192 21.3738C132.74 21.1562 133.223 20.858 133.651 20.4712C134.078 20.0843 134.424 19.633 134.69 19.1011C134.956 18.5691 135.125 18.005 135.19 17.4086V16.1029C135.125 15.5065 134.964 14.9343 134.69 14.4104C134.424 13.8785 134.07 13.4272 133.651 13.0403C133.223 12.6534 132.74 12.3552 132.192 12.1376C131.644 11.92 131.055 11.8153 130.435 11.8153C129.774 11.8153 129.153 11.9442 128.573 12.2021C127.993 12.46 127.485 12.8146 127.05 13.2579C126.615 13.7012 126.276 14.225 126.026 14.8295C125.776 15.434 125.656 16.0707 125.656 16.7557C125.656 17.4408 125.776 18.0775 126.026 18.682C126.276 19.2864 126.615 19.8022 127.05 20.2536C127.485 20.6968 127.993 21.0515 128.573 21.3094C129.153 21.5673 129.774 21.6962 130.435 21.6962Z" fill="white"/>
</svg>
